HIERARCHY
ROOT hip
{
	OFFSET 0.000000 0.000000 0.000000 
	CHANNELS 6 Xposition Yposition Zposition Xrotation Zrotation Yrotation
	JOINT abdomen
	{
		OFFSET 0.000000 3.402643 0.000000 
		CHANNELS 3 Xrotation Zrotation Yrotation
		JOINT chest
		{
			OFFSET 0.000000 8.438565 -0.680529 
			CHANNELS 3 Xrotation Zrotation Yrotation
			JOINT neck
			{
				OFFSET 0.000000 10.207942 -0.272212 
				CHANNELS 3 Xrotation Zrotation Yrotation
				JOINT head
				{
					OFFSET 0.000000 3.130431 0.000000 
					CHANNELS 3 Xrotation Zrotation Yrotation
					End Site
					{
						OFFSET 0.000000 3.130435 0.000000 
					}
				}
			}
			JOINT lCollar
			{
				OFFSET 3.470700 6.669187 -0.816635 
				CHANNELS 3 Yrotation Zrotation Xrotation
				JOINT lShldr
				{
					OFFSET 3.198488 0.000000 0.000000 
					CHANNELS 3 Zrotation Yrotation Xrotation
					JOINT lForeArm
					{
						OFFSET 10.139888 0.000000 0.000000 
						CHANNELS 3 Yrotation Zrotation Xrotation
						JOINT lHand
						{
							OFFSET 8.370511 0.000000 0.000000 
							CHANNELS 3 Zrotation Yrotation Xrotation
							End Site
							{
								OFFSET 4.083176 0.000000 0.000000 
							}
						}
					}
				}
			}
			JOINT rCollar
			{
				OFFSET -3.470700 6.669187 -0.816635 
				CHANNELS 3 Yrotation Zrotation Xrotation
				JOINT rShldr
				{
					OFFSET -3.198488 0.000000 0.000000 
					CHANNELS 3 Zrotation Yrotation Xrotation
					JOINT rForeArm
					{
						OFFSET -10.139888 0.000000 0.000000 
						CHANNELS 3 Yrotation Zrotation Xrotation
						JOINT rHand
						{
							OFFSET -8.370511 0.000000 0.000000 
							CHANNELS 3 Zrotation Yrotation Xrotation
							End Site
							{
								OFFSET -4.083176 0.000000 0.000000 
							}
						}
					}
				}
			}
		}
	}
	JOINT lThigh
	{
		OFFSET 5.308129 -1.633274 1.361059 
		CHANNELS 3 Xrotation Zrotation Yrotation
		JOINT lShin
		{
			OFFSET -2.041588 -20.007561 0.000000 
			CHANNELS 3 Xrotation Zrotation Yrotation
			JOINT lFoot
			{
				OFFSET 0.000000 -19.190928 -1.224953 
				CHANNELS 3 Xrotation Yrotation Zrotation
				End Site
				{
					OFFSET 0.000000 -2.449906 4.627600 
				}
			}
		}
	}
	JOINT rThigh
	{
		OFFSET -5.308129 -1.633274 1.361059 
		CHANNELS 3 Xrotation Zrotation Yrotation
		JOINT rShin
		{
			OFFSET 2.041588 -20.007561 0.000000 
			CHANNELS 3 Xrotation Zrotation Yrotation
			JOINT rFoot
			{
				OFFSET 0.000000 -19.190928 -1.224953 
				CHANNELS 3 Xrotation Yrotation Zrotation
				End Site
				{
					OFFSET 0.000000 -2.449906 4.627600 
				}
			}
		}
	}
}
MOTION
Frames: 8
Frame Time: 0.033333
1.447957 49.500721 1.002508 0.112122 1.074121 0.771715 0.000000 0.000000 0.000000 -0.305398 0.390616 -0.390616 7.587761 -0.126953 0.058594 6.514032 0.234375 0.087930 -1.524573 10.605586 0.377213 -11.294125 -3.322270 -12.923687 1.735126 -3.641079 15.734759 1.672758 -3.078778 -3.494657 0.457538 -6.862842 0.314920 -0.190569 -6.900597 -3.584383 -0.760543 4.540068 -3.115453 9.072820 9.996412 -2.252053 2.439507 9.691771 6.541246 7.767682 -2.467689 18.365316 -5.795256 0.562516 -11.016317 -0.430685 -12.833519 -9.467892 12.244968 2.702776 -13.587762 -7.417111 -0.727792 10.886940 
1.447581 49.495045 1.017303 0.132963 1.142469 0.791248 0.000000 0.000000 0.000000 -0.305864 0.390613 -0.458974 7.450436 -0.332030 0.126951 6.660848 0.312499 0.127005 -1.561672 10.312370 0.375459 -11.169389 -3.281765 -13.262385 1.730904 -3.456323 15.986063 1.336632 -3.020770 -3.484420 0.409955 -7.087713 0.314925 -0.149112 -6.722192 -3.619937 -0.793058 4.605725 -3.399239 9.125432 9.754335 -2.265463 2.448776 9.623664 6.476158 7.717299 -2.456876 18.310358 -5.799595 0.588514 -11.005217 -0.498652 -12.923451 -9.500134 12.416841 2.700766 -13.586439 -7.506752 -0.746761 10.945318 
1.449596 49.482979 1.028775 0.316674 1.035062 0.771711 0.000000 0.000000 0.000000 -0.443599 0.458966 -0.517562 7.479769 -0.341796 0.117185 6.660925 0.322265 0.136772 -1.318332 10.297865 0.216566 -11.089559 -3.340091 -12.902674 1.632994 -3.583256 16.243229 1.719972 -3.379349 -3.495622 0.306118 -7.040061 0.187736 -0.228051 -6.596950 -3.340599 -0.719585 4.689421 -3.400100 8.927510 9.783544 -2.282627 2.000796 9.753088 6.459966 8.216222 -2.438330 18.358900 -5.998980 0.627043 -11.122377 -0.713407 -12.795926 -9.363446 12.487190 2.672585 -13.672610 -7.568023 -0.758194 10.974177 
1.455387 49.483986 1.048425 0.296384 1.044839 0.722892 0.000000 0.000000 0.000000 -0.403986 0.439438 -0.468736 7.479949 -0.253906 0.117186 6.669797 -0.029297 0.244141 -1.375749 10.237919 0.266344 -10.979100 -3.302795 -12.801690 1.565693 -3.667705 15.814270 2.010215 -2.989695 -3.510252 0.320241 -6.922626 0.226500 -0.299089 -6.634116 -3.633099 -0.705038 4.548139 -3.193366 9.286986 9.850557 -2.243029 2.108344 9.752949 6.511179 8.146440 -2.466330 18.419983 -5.995900 0.588930 -11.107051 -0.645041 -12.821209 -9.378171 12.434888 2.670684 -13.607555 -7.562412 -0.745364 10.979698 
1.462684 49.496937 1.059888 0.392131 1.083926 0.595966 0.000000 0.000000 0.000000 -0.462380 0.390610 -0.498035 7.431224 -0.244140 0.097655 6.679388 -0.058593 0.292969 -1.287081 10.249367 0.206969 -10.988204 -3.177152 -12.776489 1.535936 -3.623735 15.999514 1.678123 -3.166476 -3.496940 0.401899 -6.824971 0.178013 -0.415419 -6.593086 -3.659066 -0.743538 4.532338 -2.713298 9.360365 9.960944 -2.220730 2.255211 9.667898 6.516148 7.765684 -2.514851 18.762867 -5.821886 0.583701 -11.039818 -0.674437 -12.848569 -9.368652 12.237530 2.649941 -13.582862 -7.454817 -0.734357 10.970790 
1.469226 49.484367 1.069656 0.488397 1.093706 0.517857 0.000000 0.000000 0.000000 -0.500843 0.410147 -0.390615 7.303421 -0.371092 0.195308 6.601982 0.136718 0.175804 -1.309228 10.220860 0.168538 -11.042069 -3.229823 -13.164350 1.562623 -3.419477 16.357901 1.543184 -3.194032 -3.500129 0.445410 -7.059577 0.128387 -0.191588 -6.650455 -3.965392 -0.825643 4.434079 -2.468354 9.263031 10.122574 -2.218894 2.040454 9.656930 6.472123 8.031447 -2.506842 18.786028 -5.975382 0.595993 -11.113961 -0.918456 -12.871650 -9.240261 12.458109 2.563991 -13.577496 -7.538967 -0.755669 11.060106 
1.473887 49.482613 1.111425 0.496927 1.035120 0.478614 0.000000 0.000000 0.000000 -0.470987 0.410150 -0.312492 7.196741 -0.205077 0.146483 6.718663 -0.039062 0.126953 -1.407129 10.531908 0.218302 -11.401471 -3.145406 -13.457403 1.525995 -3.182283 16.715603 1.788495 -3.208637 -3.504770 0.468380 -6.990936 0.157461 -0.170221 -6.806589 -4.053194 -0.802266 4.387776 -2.673559 9.160091 10.047954 -2.230282 2.068284 9.692598 6.465965 8.092204 -2.459854 18.834005 -6.053952 0.607748 -11.175286 -0.791712 -12.824342 -9.272771 12.366138 2.602154 -13.501331 -7.579081 -0.746786 11.054533 
1.481309 49.490391 1.139257 0.447854 1.005824 0.478613 0.000000 0.000000 0.000000 -0.460010 0.273436 -0.214841 7.353875 0.234375 0.087930 6.854936 -0.156249 0.195312 -1.382903 11.332559 0.227844 -11.905411 -3.194449 -12.974361 1.398581 -3.324337 16.454285 2.025446 -2.910216 -3.518496 0.536117 -6.766142 0.157456 -0.102473 -7.053172 -3.748540 -0.716921 4.342515 -2.536570 9.221069 10.011759 -2.224964 2.273695 9.711885 6.559941 7.905224 -2.487897 18.853577 -5.993875 0.599100 -11.134459 -0.596246 -12.800945 -9.319892 12.101852 2.621155 -13.545422 -7.461994 -0.761129 11.033763 
